<?xml version="1.0" encoding="utf-8" standalone="no"?>
<!DOCTYPE svg PUBLIC "-//W3C//DTD SVG 1.1//EN"
  "http://www.w3.org/Graphics/SVG/1.1/DTD/svg11.dtd">
<!-- Created with matplotlib (http://matplotlib.org/) -->
<svg height="428pt" version="1.1" viewBox="0 0 554 428" width="554pt" xmlns="http://www.w3.org/2000/svg" xmlns:xlink="http://www.w3.org/1999/xlink">
 <defs>
  <style type="text/css">
*{stroke-linecap:butt;stroke-linejoin:round;}
  </style>
 </defs>
 <g id="figure_1">
  <g id="patch_1">
   <path d="M 0 428 
L 554 428 
L 554 0 
L 0 0 
z
" style="fill:#ffffff;"/>
  </g>
  <g id="axes_1">
   <g id="patch_2">
    <path d="M 44.203125 386.84375 
L 539.7 386.84375 
L 539.7 25.918125 
L 44.203125 25.918125 
z
" style="fill:#ffffff;"/>
   </g>
   <g id="PathCollection_1">
    <defs>
     <path d="M 0 3 
C 0.795609 3 1.55874 2.683901 2.12132 2.12132 
C 2.683901 1.55874 3 0.795609 3 0 
C 3 -0.795609 2.683901 -1.55874 2.12132 -2.12132 
C 1.55874 -2.683901 0.795609 -3 0 -3 
C -0.795609 -3 -1.55874 -2.683901 -2.12132 -2.12132 
C -2.683901 -1.55874 -3 -0.795609 -3 0 
C -3 0.795609 -2.683901 1.55874 -2.12132 2.12132 
C -1.55874 2.683901 -0.795609 3 0 3 
z
" id="m880dbaa723" style="stroke:#1f77b4;"/>
    </defs>
    <g clip-path="url(#p29ad945a22)">
     <use style="fill:#1f77b4;stroke:#1f77b4;" x="175.931047" xlink:href="#m880dbaa723" y="338.217952"/>
     <use style="fill:#1f77b4;stroke:#1f77b4;" x="333.037801" xlink:href="#m880dbaa723" y="89.535806"/>
     <use style="fill:#1f77b4;stroke:#1f77b4;" x="337.133126" xlink:href="#m880dbaa723" y="120.984427"/>
     <use style="fill:#1f77b4;stroke:#1f77b4;" x="314.503634" xlink:href="#m880dbaa723" y="346.587466"/>
     <use style="fill:#1f77b4;stroke:#1f77b4;" x="399.692286" xlink:href="#m880dbaa723" y="97.951097"/>
     <use style="fill:#1f77b4;stroke:#1f77b4;" x="485.877095" xlink:href="#m880dbaa723" y="52.82286"/>
     <use style="fill:#1f77b4;stroke:#1f77b4;" x="490.045462" xlink:href="#m880dbaa723" y="63.549876"/>
     <use style="fill:#1f77b4;stroke:#1f77b4;" x="473.295356" xlink:href="#m880dbaa723" y="95.547818"/>
     <use style="fill:#1f77b4;stroke:#1f77b4;" x="206.879607" xlink:href="#m880dbaa723" y="183.843522"/>
     <use style="fill:#1f77b4;stroke:#1f77b4;" x="483.981181" xlink:href="#m880dbaa723" y="66.510105"/>
     <use style="fill:#1f77b4;stroke:#1f77b4;" x="209.95136" xlink:href="#m880dbaa723" y="239.797958"/>
     <use style="fill:#1f77b4;stroke:#1f77b4;" x="294.747082" xlink:href="#m880dbaa723" y="172.460372"/>
     <use style="fill:#1f77b4;stroke:#1f77b4;" x="352.731661" xlink:href="#m880dbaa723" y="101.521683"/>
     <use style="fill:#1f77b4;stroke:#1f77b4;" x="398.254931" xlink:href="#m880dbaa723" y="285.5747"/>
     <use style="fill:#1f77b4;stroke:#1f77b4;" x="369.841842" xlink:href="#m880dbaa723" y="120.305405"/>
     <use style="fill:#1f77b4;stroke:#1f77b4;" x="384.095499" xlink:href="#m880dbaa723" y="115.613289"/>
     <use style="fill:#1f77b4;stroke:#1f77b4;" x="195.247223" xlink:href="#m880dbaa723" y="273.619341"/>
     <use style="fill:#1f77b4;stroke:#1f77b4;" x="104.804662" xlink:href="#m880dbaa723" y="294.333316"/>
     <use style="fill:#1f77b4;stroke:#1f77b4;" x="225.007334" xlink:href="#m880dbaa723" y="216.947735"/>
     <use style="fill:#1f77b4;stroke:#1f77b4;" x="240.24676" xlink:href="#m880dbaa723" y="287.848278"/>
     <use style="fill:#1f77b4;stroke:#1f77b4;" x="490.508101" xlink:href="#m880dbaa723" y="57.263203"/>
     <use style="fill:#1f77b4;stroke:#1f77b4;" x="147.902583" xlink:href="#m880dbaa723" y="331.252258"/>
     <use style="fill:#1f77b4;stroke:#1f77b4;" x="224.51306" xlink:href="#m880dbaa723" y="286.162168"/>
     <use style="fill:#1f77b4;stroke:#1f77b4;" x="402.320911" xlink:href="#m880dbaa723" y="73.285063"/>
     <use style="fill:#1f77b4;stroke:#1f77b4;" x="317.38921" xlink:href="#m880dbaa723" y="115.948986"/>
     <use style="fill:#1f77b4;stroke:#1f77b4;" x="347.439522" xlink:href="#m880dbaa723" y="116.498306"/>
     <use style="fill:#1f77b4;stroke:#1f77b4;" x="176.956948" xlink:href="#m880dbaa723" y="175.527414"/>
     <use style="fill:#1f77b4;stroke:#1f77b4;" x="66.727605" xlink:href="#m880dbaa723" y="318.121962"/>
     <use style="fill:#1f77b4;stroke:#1f77b4;" x="290.323933" xlink:href="#m880dbaa723" y="250.524975"/>
     <use style="fill:#1f77b4;stroke:#1f77b4;" x="375.226969" xlink:href="#m880dbaa723" y="71.537917"/>
     <use style="fill:#1f77b4;stroke:#1f77b4;" x="215.979043" xlink:href="#m880dbaa723" y="303.885396"/>
     <use style="fill:#1f77b4;stroke:#1f77b4;" x="411.386833" xlink:href="#m880dbaa723" y="94.685689"/>
     <use style="fill:#1f77b4;stroke:#1f77b4;" x="368.70567" xlink:href="#m880dbaa723" y="75.421311"/>
     <use style="fill:#1f77b4;stroke:#1f77b4;" x="450.154348" xlink:href="#m880dbaa723" y="89.05515"/>
     <use style="fill:#1f77b4;stroke:#1f77b4;" x="487.980067" xlink:href="#m880dbaa723" y="74.971173"/>
     <use style="fill:#1f77b4;stroke:#1f77b4;" x="241.94949" xlink:href="#m880dbaa723" y="254.576216"/>
     <use style="fill:#1f77b4;stroke:#1f77b4;" x="334.32205" xlink:href="#m880dbaa723" y="121.487971"/>
     <use style="fill:#1f77b4;stroke:#1f77b4;" x="345.76922" xlink:href="#m880dbaa723" y="100.4383"/>
     <use style="fill:#1f77b4;stroke:#1f77b4;" x="327.663829" xlink:href="#m880dbaa723" y="128.331594"/>
     <use style="fill:#1f77b4;stroke:#1f77b4;" x="329.926824" xlink:href="#m880dbaa723" y="124.211687"/>
     <use style="fill:#1f77b4;stroke:#1f77b4;" x="395.330476" xlink:href="#m880dbaa723" y="279.082032"/>
     <use style="fill:#1f77b4;stroke:#1f77b4;" x="139.552958" xlink:href="#m880dbaa723" y="229.788111"/>
     <use style="fill:#1f77b4;stroke:#1f77b4;" x="146.008889" xlink:href="#m880dbaa723" y="268.644935"/>
     <use style="fill:#1f77b4;stroke:#1f77b4;" x="482.719155" xlink:href="#m880dbaa723" y="67.486676"/>
     <use style="fill:#1f77b4;stroke:#1f77b4;" x="475.240097" xlink:href="#m880dbaa723" y="57.232686"/>
     <use style="fill:#1f77b4;stroke:#1f77b4;" x="402.550623" xlink:href="#m880dbaa723" y="239.744552"/>
     <use style="fill:#1f77b4;stroke:#1f77b4;" x="153.475278" xlink:href="#m880dbaa723" y="219.045836"/>
     <use style="fill:#1f77b4;stroke:#1f77b4;" x="479.961483" xlink:href="#m880dbaa723" y="66.777136"/>
     <use style="fill:#1f77b4;stroke:#1f77b4;" x="202.808313" xlink:href="#m880dbaa723" y="214.666528"/>
     <use style="fill:#1f77b4;stroke:#1f77b4;" x="466.444579" xlink:href="#m880dbaa723" y="66.189668"/>
     <use style="fill:#1f77b4;stroke:#1f77b4;" x="321.279591" xlink:href="#m880dbaa723" y="136.563778"/>
     <use style="fill:#1f77b4;stroke:#1f77b4;" x="173.035117" xlink:href="#m880dbaa723" y="245.298797"/>
     <use style="fill:#1f77b4;stroke:#1f77b4;" x="130.692942" xlink:href="#m880dbaa723" y="318.686542"/>
     <use style="fill:#1f77b4;stroke:#1f77b4;" x="194.14032" xlink:href="#m880dbaa723" y="207.845793"/>
     <use style="fill:#1f77b4;stroke:#1f77b4;" x="288.284216" xlink:href="#m880dbaa723" y="137.029175"/>
     <use style="fill:#1f77b4;stroke:#1f77b4;" x="498.301257" xlink:href="#m880dbaa723" y="45.399398"/>
     <use style="fill:#1f77b4;stroke:#1f77b4;" x="429.517682" xlink:href="#m880dbaa723" y="113.07268"/>
     <use style="fill:#1f77b4;stroke:#1f77b4;" x="490.176039" xlink:href="#m880dbaa723" y="48.840283"/>
     <use style="fill:#1f77b4;stroke:#1f77b4;" x="256.158952" xlink:href="#m880dbaa723" y="178.991187"/>
     <use style="fill:#1f77b4;stroke:#1f77b4;" x="288.095845" xlink:href="#m880dbaa723" y="133.58066"/>
     <use style="fill:#1f77b4;stroke:#1f77b4;" x="391.316367" xlink:href="#m880dbaa723" y="131.185011"/>
     <use style="fill:#1f77b4;stroke:#1f77b4;" x="308.381544" xlink:href="#m880dbaa723" y="218.305779"/>
     <use style="fill:#1f77b4;stroke:#1f77b4;" x="500.358211" xlink:href="#m880dbaa723" y="70.752083"/>
     <use style="fill:#1f77b4;stroke:#1f77b4;" x="459.837509" xlink:href="#m880dbaa723" y="56.561293"/>
     <use style="fill:#1f77b4;stroke:#1f77b4;" x="469.64118" xlink:href="#m880dbaa723" y="58.079555"/>
     <use style="fill:#1f77b4;stroke:#1f77b4;" x="351.25476" xlink:href="#m880dbaa723" y="118.954992"/>
     <use style="fill:#1f77b4;stroke:#1f77b4;" x="478.560259" xlink:href="#m880dbaa723" y="42.385763"/>
     <use style="fill:#1f77b4;stroke:#1f77b4;" x="309.317671" xlink:href="#m880dbaa723" y="119.199134"/>
     <use style="fill:#1f77b4;stroke:#1f77b4;" x="211.266367" xlink:href="#m880dbaa723" y="259.771876"/>
     <use style="fill:#1f77b4;stroke:#1f77b4;" x="218.656788" xlink:href="#m880dbaa723" y="159.162229"/>
     <use style="fill:#1f77b4;stroke:#1f77b4;" x="452.092967" xlink:href="#m880dbaa723" y="72.751001"/>
     <use style="fill:#1f77b4;stroke:#1f77b4;" x="513.488708" xlink:href="#m880dbaa723" y="80.647489"/>
     <use style="fill:#1f77b4;stroke:#1f77b4;" x="382.288128" xlink:href="#m880dbaa723" y="123.3343"/>
     <use style="fill:#1f77b4;stroke:#1f77b4;" x="217.351698" xlink:href="#m880dbaa723" y="347.64796"/>
     <use style="fill:#1f77b4;stroke:#1f77b4;" x="101.599947" xlink:href="#m880dbaa723" y="324.103457"/>
     <use style="fill:#1f77b4;stroke:#1f77b4;" x="394.636746" xlink:href="#m880dbaa723" y="108.388194"/>
     <use style="fill:#1f77b4;stroke:#1f77b4;" x="181.977688" xlink:href="#m880dbaa723" y="219.083983"/>
     <use style="fill:#1f77b4;stroke:#1f77b4;" x="154.234302" xlink:href="#m880dbaa723" y="304.076132"/>
     <use style="fill:#1f77b4;stroke:#1f77b4;" x="397.433503" xlink:href="#m880dbaa723" y="106.183281"/>
     <use style="fill:#1f77b4;stroke:#1f77b4;" x="181.795365" xlink:href="#m880dbaa723" y="257.04816"/>
     <use style="fill:#1f77b4;stroke:#1f77b4;" x="229.427231" xlink:href="#m880dbaa723" y="183.065317"/>
     <use style="fill:#1f77b4;stroke:#1f77b4;" x="386.315273" xlink:href="#m880dbaa723" y="117.169699"/>
     <use style="fill:#1f77b4;stroke:#1f77b4;" x="394.058501" xlink:href="#m880dbaa723" y="91.275322"/>
     <use style="fill:#1f77b4;stroke:#1f77b4;" x="276.421384" xlink:href="#m880dbaa723" y="162.931181"/>
     <use style="fill:#1f77b4;stroke:#1f77b4;" x="371.627309" xlink:href="#m880dbaa723" y="103.879185"/>
     <use style="fill:#1f77b4;stroke:#1f77b4;" x="294.702443" xlink:href="#m880dbaa723" y="129.659119"/>
     <use style="fill:#1f77b4;stroke:#1f77b4;" x="161.305251" xlink:href="#m880dbaa723" y="351.538983"/>
     <use style="fill:#1f77b4;stroke:#1f77b4;" x="173.159156" xlink:href="#m880dbaa723" y="199.049029"/>
     <use style="fill:#1f77b4;stroke:#1f77b4;" x="314.753915" xlink:href="#m880dbaa723" y="268.957743"/>
     <use style="fill:#1f77b4;stroke:#1f77b4;" x="185.770905" xlink:href="#m880dbaa723" y="185.956882"/>
     <use style="fill:#1f77b4;stroke:#1f77b4;" x="491.646581" xlink:href="#m880dbaa723" y="64.06105"/>
     <use style="fill:#1f77b4;stroke:#1f77b4;" x="458.677489" xlink:href="#m880dbaa723" y="60.68883"/>
     <use style="fill:#1f77b4;stroke:#1f77b4;" x="266.102396" xlink:href="#m880dbaa723" y="116.422012"/>
     <use style="fill:#1f77b4;stroke:#1f77b4;" x="136.561375" xlink:href="#m880dbaa723" y="238.737464"/>
     <use style="fill:#1f77b4;stroke:#1f77b4;" x="239.041275" xlink:href="#m880dbaa723" y="315.093068"/>
     <use style="fill:#1f77b4;stroke:#1f77b4;" x="517.177404" xlink:href="#m880dbaa723" y="60.749865"/>
     <use style="fill:#1f77b4;stroke:#1f77b4;" x="448.162617" xlink:href="#m880dbaa723" y="95.509671"/>
     <use style="fill:#1f77b4;stroke:#1f77b4;" x="261.445805" xlink:href="#m880dbaa723" y="173.002064"/>
     <use style="fill:#1f77b4;stroke:#1f77b4;" x="376.694021" xlink:href="#m880dbaa723" y="96.295505"/>
     <use style="fill:#1f77b4;stroke:#1f77b4;" x="302.379745" xlink:href="#m880dbaa723" y="125.172999"/>
     <use style="fill:#1f77b4;stroke:#1f77b4;" x="352.293945" xlink:href="#m880dbaa723" y="127.698349"/>
     <use style="fill:#1f77b4;stroke:#1f77b4;" x="279.041424" xlink:href="#m880dbaa723" y="125.661284"/>
     <use style="fill:#1f77b4;stroke:#1f77b4;" x="415.853723" xlink:href="#m880dbaa723" y="96.097139"/>
     <use style="fill:#1f77b4;stroke:#1f77b4;" x="440.822928" xlink:href="#m880dbaa723" y="76.756466"/>
     <use style="fill:#1f77b4;stroke:#1f77b4;" x="435.666723" xlink:href="#m880dbaa723" y="71.812578"/>
     <use style="fill:#1f77b4;stroke:#1f77b4;" x="355.306594" xlink:href="#m880dbaa723" y="89.390846"/>
     <use style="fill:#1f77b4;stroke:#1f77b4;" x="385.128719" xlink:href="#m880dbaa723" y="119.649272"/>
     <use style="fill:#1f77b4;stroke:#1f77b4;" x="165.368062" xlink:href="#m880dbaa723" y="319.800443"/>
     <use style="fill:#1f77b4;stroke:#1f77b4;" x="218.949355" xlink:href="#m880dbaa723" y="172.658738"/>
     <use style="fill:#1f77b4;stroke:#1f77b4;" x="445.546955" xlink:href="#m880dbaa723" y="117.352806"/>
     <use style="fill:#1f77b4;stroke:#1f77b4;" x="224.941023" xlink:href="#m880dbaa723" y="191.472979"/>
     <use style="fill:#1f77b4;stroke:#1f77b4;" x="376.493018" xlink:href="#m880dbaa723" y="108.006721"/>
     <use style="fill:#1f77b4;stroke:#1f77b4;" x="165.31287" xlink:href="#m880dbaa723" y="347.831067"/>
     <use style="fill:#1f77b4;stroke:#1f77b4;" x="513.187119" xlink:href="#m880dbaa723" y="62.458864"/>
     <use style="fill:#1f77b4;stroke:#1f77b4;" x="432.690726" xlink:href="#m880dbaa723" y="102.96365"/>
     <use style="fill:#1f77b4;stroke:#1f77b4;" x="460.668059" xlink:href="#m880dbaa723" y="78.068732"/>
     <use style="fill:#1f77b4;stroke:#1f77b4;" x="171.498533" xlink:href="#m880dbaa723" y="305.174774"/>
     <use style="fill:#1f77b4;stroke:#1f77b4;" x="371.775273" xlink:href="#m880dbaa723" y="296.172015"/>
     <use style="fill:#1f77b4;stroke:#1f77b4;" x="470.402743" xlink:href="#m880dbaa723" y="55.06592"/>
     <use style="fill:#1f77b4;stroke:#1f77b4;" x="298.049307" xlink:href="#m880dbaa723" y="120.259629"/>
     <use style="fill:#1f77b4;stroke:#1f77b4;" x="261.327195" xlink:href="#m880dbaa723" y="225.851311"/>
     <use style="fill:#1f77b4;stroke:#1f77b4;" x="309.202542" xlink:href="#m880dbaa723" y="370.376112"/>
     <use style="fill:#1f77b4;stroke:#1f77b4;" x="484.411437" xlink:href="#m880dbaa723" y="55.500799"/>
     <use style="fill:#1f77b4;stroke:#1f77b4;" x="493.304667" xlink:href="#m880dbaa723" y="49.267533"/>
     <use style="fill:#1f77b4;stroke:#1f77b4;" x="302.623386" xlink:href="#m880dbaa723" y="106.930968"/>
     <use style="fill:#1f77b4;stroke:#1f77b4;" x="470.092108" xlink:href="#m880dbaa723" y="74.45237"/>
     <use style="fill:#1f77b4;stroke:#1f77b4;" x="187.045935" xlink:href="#m880dbaa723" y="271.925601"/>
     <use style="fill:#1f77b4;stroke:#1f77b4;" x="352.872801" xlink:href="#m880dbaa723" y="133.840062"/>
     <use style="fill:#1f77b4;stroke:#1f77b4;" x="167.348155" xlink:href="#m880dbaa723" y="226.888917"/>
     <use style="fill:#1f77b4;stroke:#1f77b4;" x="429.515581" xlink:href="#m880dbaa723" y="139.920739"/>
     <use style="fill:#1f77b4;stroke:#1f77b4;" x="348.504409" xlink:href="#m880dbaa723" y="108.609448"/>
     <use style="fill:#1f77b4;stroke:#1f77b4;" x="363.810976" xlink:href="#m880dbaa723" y="124.982262"/>
     <use style="fill:#1f77b4;stroke:#1f77b4;" x="182.93854" xlink:href="#m880dbaa723" y="279.364322"/>
     <use style="fill:#1f77b4;stroke:#1f77b4;" x="482.709145" xlink:href="#m880dbaa723" y="66.632176"/>
     <use style="fill:#1f77b4;stroke:#1f77b4;" x="505.09126" xlink:href="#m880dbaa723" y="75.657824"/>
     <use style="fill:#1f77b4;stroke:#1f77b4;" x="383.529289" xlink:href="#m880dbaa723" y="89.833355"/>
     <use style="fill:#1f77b4;stroke:#1f77b4;" x="389.881876" xlink:href="#m880dbaa723" y="109.952232"/>
     <use style="fill:#1f77b4;stroke:#1f77b4;" x="255.781093" xlink:href="#m880dbaa723" y="106.122245"/>
     <use style="fill:#1f77b4;stroke:#1f77b4;" x="274.420709" xlink:href="#m880dbaa723" y="112.431806"/>
     <use style="fill:#1f77b4;stroke:#1f77b4;" x="249.857426" xlink:href="#m880dbaa723" y="194.250101"/>
     <use style="fill:#1f77b4;stroke:#1f77b4;" x="199.034092" xlink:href="#m880dbaa723" y="349.234887"/>
     <use style="fill:#1f77b4;stroke:#1f77b4;" x="112.470157" xlink:href="#m880dbaa723" y="340.819597"/>
    </g>
   </g>
   <g id="matplotlib.axis_1">
    <g id="xtick_1">
     <g id="line2d_1">
      <defs>
       <path d="M 0 0 
L 0 3.5 
" id="m4383605d54" style="stroke:#000000;stroke-width:0.8;"/>
      </defs>
      <g>
       <use style="stroke:#000000;stroke-width:0.8;" x="178.169747" xlink:href="#m4383605d54" y="386.84375"/>
      </g>
     </g>
     <g id="text_1">
      <!-- $\mathdefault{10^{3}}$ -->
      <defs>
       <path d="M 12.40625 8.296875 
L 28.515625 8.296875 
L 28.515625 63.921875 
L 10.984375 60.40625 
L 10.984375 69.390625 
L 28.421875 72.90625 
L 38.28125 72.90625 
L 38.28125 8.296875 
L 54.390625 8.296875 
L 54.390625 0 
L 12.40625 0 
z
" id="DejaVuSans-31"/>
       <path d="M 31.78125 66.40625 
Q 24.171875 66.40625 20.328125 58.90625 
Q 16.5 51.421875 16.5 36.375 
Q 16.5 21.390625 20.328125 13.890625 
Q 24.171875 6.390625 31.78125 6.390625 
Q 39.453125 6.390625 43.28125 13.890625 
Q 47.125 21.390625 47.125 36.375 
Q 47.125 51.421875 43.28125 58.90625 
Q 39.453125 66.40625 31.78125 66.40625 
z
M 31.78125 74.21875 
Q 44.046875 74.21875 50.515625 64.515625 
Q 56.984375 54.828125 56.984375 36.375 
Q 56.984375 17.96875 50.515625 8.265625 
Q 44.046875 -1.421875 31.78125 -1.421875 
Q 19.53125 -1.421875 13.0625 8.265625 
Q 6.59375 17.96875 6.59375 36.375 
Q 6.59375 54.828125 13.0625 64.515625 
Q 19.53125 74.21875 31.78125 74.21875 
z
" id="DejaVuSans-30"/>
       <path d="M 40.578125 39.3125 
Q 47.65625 37.796875 51.625 33 
Q 55.609375 28.21875 55.609375 21.1875 
Q 55.609375 10.40625 48.1875 4.484375 
Q 40.765625 -1.421875 27.09375 -1.421875 
Q 22.515625 -1.421875 17.65625 -0.515625 
Q 12.796875 0.390625 7.625 2.203125 
L 7.625 11.71875 
Q 11.71875 9.328125 16.59375 8.109375 
Q 21.484375 6.890625 26.8125 6.890625 
Q 36.078125 6.890625 40.9375 10.546875 
Q 45.796875 14.203125 45.796875 21.1875 
Q 45.796875 27.640625 41.28125 31.265625 
Q 36.765625 34.90625 28.71875 34.90625 
L 20.21875 34.90625 
L 20.21875 43.015625 
L 29.109375 43.015625 
Q 36.375 43.015625 40.234375 45.921875 
Q 44.09375 48.828125 44.09375 54.296875 
Q 44.09375 59.90625 40.109375 62.90625 
Q 36.140625 65.921875 28.71875 65.921875 
Q 24.65625 65.921875 20.015625 65.03125 
Q 15.375 64.15625 9.8125 62.3125 
L 9.8125 71.09375 
Q 15.4375 72.65625 20.34375 73.4375 
Q 25.25 74.21875 29.59375 74.21875 
Q 40.828125 74.21875 47.359375 69.109375 
Q 53.90625 64.015625 53.90625 55.328125 
Q 53.90625 49.265625 50.4375 45.09375 
Q 46.96875 40.921875 40.578125 39.3125 
z
" id="DejaVuSans-33"/>
      </defs>
      <g transform="translate(169.369747 401.442187)scale(0.1 -0.1)">
       <use transform="translate(0 0.765625)" xlink:href="#DejaVuSans-31"/>
       <use transform="translate(63.623047 0.765625)" xlink:href="#DejaVuSans-30"/>
       <use transform="translate(128.203125 39.046875)scale(0.7)" xlink:href="#DejaVuSans-33"/>
      </g>
     </g>
    </g>
    <g id="xtick_2">
     <g id="line2d_2">
      <g>
       <use style="stroke:#000000;stroke-width:0.8;" x="378.369098" xlink:href="#m4383605d54" y="386.84375"/>
      </g>
     </g>
     <g id="text_2">
      <!-- $\mathdefault{10^{4}}$ -->
      <defs>
       <path d="M 37.796875 64.3125 
L 12.890625 25.390625 
L 37.796875 25.390625 
z
M 35.203125 72.90625 
L 47.609375 72.90625 
L 47.609375 25.390625 
L 58.015625 25.390625 
L 58.015625 17.1875 
L 47.609375 17.1875 
L 47.609375 0 
L 37.796875 0 
L 37.796875 17.1875 
L 4.890625 17.1875 
L 4.890625 26.703125 
z
" id="DejaVuSans-34"/>
      </defs>
      <g transform="translate(369.569098 401.442187)scale(0.1 -0.1)">
       <use transform="translate(0 0.684375)" xlink:href="#DejaVuSans-31"/>
       <use transform="translate(63.623047 0.684375)" xlink:href="#DejaVuSans-30"/>
       <use transform="translate(128.203125 38.965625)scale(0.7)" xlink:href="#DejaVuSans-34"/>
      </g>
     </g>
    </g>
    <g id="xtick_3">
     <g id="line2d_3">
      <defs>
       <path d="M 0 0 
L 0 2 
" id="m9347aa5846" style="stroke:#000000;stroke-width:0.6;"/>
      </defs>
      <g>
       <use style="stroke:#000000;stroke-width:0.6;" x="73.489761" xlink:href="#m9347aa5846" y="386.84375"/>
      </g>
     </g>
    </g>
    <g id="xtick_4">
     <g id="line2d_4">
      <g>
       <use style="stroke:#000000;stroke-width:0.6;" x="98.502415" xlink:href="#m9347aa5846" y="386.84375"/>
      </g>
     </g>
    </g>
    <g id="xtick_5">
     <g id="line2d_5">
      <g>
       <use style="stroke:#000000;stroke-width:0.6;" x="117.903737" xlink:href="#m9347aa5846" y="386.84375"/>
      </g>
     </g>
    </g>
    <g id="xtick_6">
     <g id="line2d_6">
      <g>
       <use style="stroke:#000000;stroke-width:0.6;" x="133.755771" xlink:href="#m9347aa5846" y="386.84375"/>
      </g>
     </g>
    </g>
    <g id="xtick_7">
     <g id="line2d_7">
      <g>
       <use style="stroke:#000000;stroke-width:0.6;" x="147.158475" xlink:href="#m9347aa5846" y="386.84375"/>
      </g>
     </g>
    </g>
    <g id="xtick_8">
     <g id="line2d_8">
      <g>
       <use style="stroke:#000000;stroke-width:0.6;" x="158.768425" xlink:href="#m9347aa5846" y="386.84375"/>
      </g>
     </g>
    </g>
    <g id="xtick_9">
     <g id="line2d_9">
      <g>
       <use style="stroke:#000000;stroke-width:0.6;" x="169.009127" xlink:href="#m9347aa5846" y="386.84375"/>
      </g>
     </g>
    </g>
    <g id="xtick_10">
     <g id="line2d_10">
      <g>
       <use style="stroke:#000000;stroke-width:0.6;" x="238.435757" xlink:href="#m9347aa5846" y="386.84375"/>
      </g>
     </g>
    </g>
    <g id="xtick_11">
     <g id="line2d_11">
      <g>
       <use style="stroke:#000000;stroke-width:0.6;" x="273.689113" xlink:href="#m9347aa5846" y="386.84375"/>
      </g>
     </g>
    </g>
    <g id="xtick_12">
     <g id="line2d_12">
      <g>
       <use style="stroke:#000000;stroke-width:0.6;" x="298.701767" xlink:href="#m9347aa5846" y="386.84375"/>
      </g>
     </g>
    </g>
    <g id="xtick_13">
     <g id="line2d_13">
      <g>
       <use style="stroke:#000000;stroke-width:0.6;" x="318.103088" xlink:href="#m9347aa5846" y="386.84375"/>
      </g>
     </g>
    </g>
    <g id="xtick_14">
     <g id="line2d_14">
      <g>
       <use style="stroke:#000000;stroke-width:0.6;" x="333.955122" xlink:href="#m9347aa5846" y="386.84375"/>
      </g>
     </g>
    </g>
    <g id="xtick_15">
     <g id="line2d_15">
      <g>
       <use style="stroke:#000000;stroke-width:0.6;" x="347.357826" xlink:href="#m9347aa5846" y="386.84375"/>
      </g>
     </g>
    </g>
    <g id="xtick_16">
     <g id="line2d_16">
      <g>
       <use style="stroke:#000000;stroke-width:0.6;" x="358.967777" xlink:href="#m9347aa5846" y="386.84375"/>
      </g>
     </g>
    </g>
    <g id="xtick_17">
     <g id="line2d_17">
      <g>
       <use style="stroke:#000000;stroke-width:0.6;" x="369.208478" xlink:href="#m9347aa5846" y="386.84375"/>
      </g>
     </g>
    </g>
    <g id="xtick_18">
     <g id="line2d_18">
      <g>
       <use style="stroke:#000000;stroke-width:0.6;" x="438.635108" xlink:href="#m9347aa5846" y="386.84375"/>
      </g>
     </g>
    </g>
    <g id="xtick_19">
     <g id="line2d_19">
      <g>
       <use style="stroke:#000000;stroke-width:0.6;" x="473.888464" xlink:href="#m9347aa5846" y="386.84375"/>
      </g>
     </g>
    </g>
    <g id="xtick_20">
     <g id="line2d_20">
      <g>
       <use style="stroke:#000000;stroke-width:0.6;" x="498.901118" xlink:href="#m9347aa5846" y="386.84375"/>
      </g>
     </g>
    </g>
    <g id="xtick_21">
     <g id="line2d_21">
      <g>
       <use style="stroke:#000000;stroke-width:0.6;" x="518.30244" xlink:href="#m9347aa5846" y="386.84375"/>
      </g>
     </g>
    </g>
    <g id="xtick_22">
     <g id="line2d_22">
      <g>
       <use style="stroke:#000000;stroke-width:0.6;" x="534.154474" xlink:href="#m9347aa5846" y="386.84375"/>
      </g>
     </g>
    </g>
    <g id="text_3">
     <!-- GDP per Capita [in USD] -->
     <defs>
      <path d="M 59.515625 10.40625 
L 59.515625 29.984375 
L 43.40625 29.984375 
L 43.40625 38.09375 
L 69.28125 38.09375 
L 69.28125 6.78125 
Q 63.578125 2.734375 56.6875 0.65625 
Q 49.8125 -1.421875 42 -1.421875 
Q 24.90625 -1.421875 15.25 8.5625 
Q 5.609375 18.5625 5.609375 36.375 
Q 5.609375 54.25 15.25 64.234375 
Q 24.90625 74.21875 42 74.21875 
Q 49.125 74.21875 55.546875 72.453125 
Q 61.96875 70.703125 67.390625 67.28125 
L 67.390625 56.78125 
Q 61.921875 61.421875 55.765625 63.765625 
Q 49.609375 66.109375 42.828125 66.109375 
Q 29.4375 66.109375 22.71875 58.640625 
Q 16.015625 51.171875 16.015625 36.375 
Q 16.015625 21.625 22.71875 14.15625 
Q 29.4375 6.6875 42.828125 6.6875 
Q 48.046875 6.6875 52.140625 7.59375 
Q 56.25 8.5 59.515625 10.40625 
z
" id="DejaVuSans-47"/>
      <path d="M 19.671875 64.796875 
L 19.671875 8.109375 
L 31.59375 8.109375 
Q 46.6875 8.109375 53.6875 14.9375 
Q 60.6875 21.78125 60.6875 36.53125 
Q 60.6875 51.171875 53.6875 57.984375 
Q 46.6875 64.796875 31.59375 64.796875 
z
M 9.8125 72.90625 
L 30.078125 72.90625 
Q 51.265625 72.90625 61.171875 64.09375 
Q 71.09375 55.28125 71.09375 36.53125 
Q 71.09375 17.671875 61.125 8.828125 
Q 51.171875 0 30.078125 0 
L 9.8125 0 
z
" id="DejaVuSans-44"/>
      <path d="M 19.671875 64.796875 
L 19.671875 37.40625 
L 32.078125 37.40625 
Q 38.96875 37.40625 42.71875 40.96875 
Q 46.484375 44.53125 46.484375 51.125 
Q 46.484375 57.671875 42.71875 61.234375 
Q 38.96875 64.796875 32.078125 64.796875 
z
M 9.8125 72.90625 
L 32.078125 72.90625 
Q 44.34375 72.90625 50.609375 67.359375 
Q 56.890625 61.8125 56.890625 51.125 
Q 56.890625 40.328125 50.609375 34.8125 
Q 44.34375 29.296875 32.078125 29.296875 
L 19.671875 29.296875 
L 19.671875 0 
L 9.8125 0 
z
" id="DejaVuSans-50"/>
      <path id="DejaVuSans-20"/>
      <path d="M 18.109375 8.203125 
L 18.109375 -20.796875 
L 9.078125 -20.796875 
L 9.078125 54.6875 
L 18.109375 54.6875 
L 18.109375 46.390625 
Q 20.953125 51.265625 25.265625 53.625 
Q 29.59375 56 35.59375 56 
Q 45.5625 56 51.78125 48.09375 
Q 58.015625 40.1875 58.015625 27.296875 
Q 58.015625 14.40625 51.78125 6.484375 
Q 45.5625 -1.421875 35.59375 -1.421875 
Q 29.59375 -1.421875 25.265625 0.953125 
Q 20.953125 3.328125 18.109375 8.203125 
z
M 48.6875 27.296875 
Q 48.6875 37.203125 44.609375 42.84375 
Q 40.53125 48.484375 33.40625 48.484375 
Q 26.265625 48.484375 22.1875 42.84375 
Q 18.109375 37.203125 18.109375 27.296875 
Q 18.109375 17.390625 22.1875 11.75 
Q 26.265625 6.109375 33.40625 6.109375 
Q 40.53125 6.109375 44.609375 11.75 
Q 48.6875 17.390625 48.6875 27.296875 
z
" id="DejaVuSans-70"/>
      <path d="M 56.203125 29.59375 
L 56.203125 25.203125 
L 14.890625 25.203125 
Q 15.484375 15.921875 20.484375 11.0625 
Q 25.484375 6.203125 34.421875 6.203125 
Q 39.59375 6.203125 44.453125 7.46875 
Q 49.3125 8.734375 54.109375 11.28125 
L 54.109375 2.78125 
Q 49.265625 0.734375 44.1875 -0.34375 
Q 39.109375 -1.421875 33.890625 -1.421875 
Q 20.796875 -1.421875 13.15625 6.1875 
Q 5.515625 13.8125 5.515625 26.8125 
Q 5.515625 40.234375 12.765625 48.109375 
Q 20.015625 56 32.328125 56 
Q 43.359375 56 49.78125 48.890625 
Q 56.203125 41.796875 56.203125 29.59375 
z
M 47.21875 32.234375 
Q 47.125 39.59375 43.09375 43.984375 
Q 39.0625 48.390625 32.421875 48.390625 
Q 24.90625 48.390625 20.390625 44.140625 
Q 15.875 39.890625 15.1875 32.171875 
z
" id="DejaVuSans-65"/>
      <path d="M 41.109375 46.296875 
Q 39.59375 47.171875 37.8125 47.578125 
Q 36.03125 48 33.890625 48 
Q 26.265625 48 22.1875 43.046875 
Q 18.109375 38.09375 18.109375 28.8125 
L 18.109375 0 
L 9.078125 0 
L 9.078125 54.6875 
L 18.109375 54.6875 
L 18.109375 46.1875 
Q 20.953125 51.171875 25.484375 53.578125 
Q 30.03125 56 36.53125 56 
Q 37.453125 56 38.578125 55.875 
Q 39.703125 55.765625 41.0625 55.515625 
z
" id="DejaVuSans-72"/>
      <path d="M 64.40625 67.28125 
L 64.40625 56.890625 
Q 59.421875 61.53125 53.78125 63.8125 
Q 48.140625 66.109375 41.796875 66.109375 
Q 29.296875 66.109375 22.65625 58.46875 
Q 16.015625 50.828125 16.015625 36.375 
Q 16.015625 21.96875 22.65625 14.328125 
Q 29.296875 6.6875 41.796875 6.6875 
Q 48.140625 6.6875 53.78125 8.984375 
Q 59.421875 11.28125 64.40625 15.921875 
L 64.40625 5.609375 
Q 59.234375 2.09375 53.4375 0.328125 
Q 47.65625 -1.421875 41.21875 -1.421875 
Q 24.65625 -1.421875 15.125 8.703125 
Q 5.609375 18.84375 5.609375 36.375 
Q 5.609375 53.953125 15.125 64.078125 
Q 24.65625 74.21875 41.21875 74.21875 
Q 47.75 74.21875 53.53125 72.484375 
Q 59.328125 70.75 64.40625 67.28125 
z
" id="DejaVuSans-43"/>
      <path d="M 34.28125 27.484375 
Q 23.390625 27.484375 19.1875 25 
Q 14.984375 22.515625 14.984375 16.5 
Q 14.984375 11.71875 18.140625 8.90625 
Q 21.296875 6.109375 26.703125 6.109375 
Q 34.1875 6.109375 38.703125 11.40625 
Q 43.21875 16.703125 43.21875 25.484375 
L 43.21875 27.484375 
z
M 52.203125 31.203125 
L 52.203125 0 
L 43.21875 0 
L 43.21875 8.296875 
Q 40.140625 3.328125 35.546875 0.953125 
Q 30.953125 -1.421875 24.3125 -1.421875 
Q 15.921875 -1.421875 10.953125 3.296875 
Q 6 8.015625 6 15.921875 
Q 6 25.140625 12.171875 29.828125 
Q 18.359375 34.515625 30.609375 34.515625 
L 43.21875 34.515625 
L 43.21875 35.40625 
Q 43.21875 41.609375 39.140625 45 
Q 35.0625 48.390625 27.6875 48.390625 
Q 23 48.390625 18.546875 47.265625 
Q 14.109375 46.140625 10.015625 43.890625 
L 10.015625 52.203125 
Q 14.9375 54.109375 19.578125 55.046875 
Q 24.21875 56 28.609375 56 
Q 40.484375 56 46.34375 49.84375 
Q 52.203125 43.703125 52.203125 31.203125 
z
" id="DejaVuSans-61"/>
      <path d="M 9.421875 54.6875 
L 18.40625 54.6875 
L 18.40625 0 
L 9.421875 0 
z
M 9.421875 75.984375 
L 18.40625 75.984375 
L 18.40625 64.59375 
L 9.421875 64.59375 
z
" id="DejaVuSans-69"/>
      <path d="M 18.3125 70.21875 
L 18.3125 54.6875 
L 36.8125 54.6875 
L 36.8125 47.703125 
L 18.3125 47.703125 
L 18.3125 18.015625 
Q 18.3125 11.328125 20.140625 9.421875 
Q 21.96875 7.515625 27.59375 7.515625 
L 36.8125 7.515625 
L 36.8125 0 
L 27.59375 0 
Q 17.1875 0 13.234375 3.875 
Q 9.28125 7.765625 9.28125 18.015625 
L 9.28125 47.703125 
L 2.6875 47.703125 
L 2.6875 54.6875 
L 9.28125 54.6875 
L 9.28125 70.21875 
z
" id="DejaVuSans-74"/>
      <path d="M 8.59375 75.984375 
L 29.296875 75.984375 
L 29.296875 69 
L 17.578125 69 
L 17.578125 -6.203125 
L 29.296875 -6.203125 
L 29.296875 -13.1875 
L 8.59375 -13.1875 
z
" id="DejaVuSans-5b"/>
      <path d="M 54.890625 33.015625 
L 54.890625 0 
L 45.90625 0 
L 45.90625 32.71875 
Q 45.90625 40.484375 42.875 44.328125 
Q 39.84375 48.1875 33.796875 48.1875 
Q 26.515625 48.1875 22.3125 43.546875 
Q 18.109375 38.921875 18.109375 30.90625 
L 18.109375 0 
L 9.078125 0 
L 9.078125 54.6875 
L 18.109375 54.6875 
L 18.109375 46.1875 
Q 21.34375 51.125 25.703125 53.5625 
Q 30.078125 56 35.796875 56 
Q 45.21875 56 50.046875 50.171875 
Q 54.890625 44.34375 54.890625 33.015625 
z
" id="DejaVuSans-6e"/>
      <path d="M 8.6875 72.90625 
L 18.609375 72.90625 
L 18.609375 28.609375 
Q 18.609375 16.890625 22.84375 11.734375 
Q 27.09375 6.59375 36.625 6.59375 
Q 46.09375 6.59375 50.34375 11.734375 
Q 54.59375 16.890625 54.59375 28.609375 
L 54.59375 72.90625 
L 64.5 72.90625 
L 64.5 27.390625 
Q 64.5 13.140625 57.4375 5.859375 
Q 50.390625 -1.421875 36.625 -1.421875 
Q 22.796875 -1.421875 15.734375 5.859375 
Q 8.6875 13.140625 8.6875 27.390625 
z
" id="DejaVuSans-55"/>
      <path d="M 53.515625 70.515625 
L 53.515625 60.890625 
Q 47.90625 63.578125 42.921875 64.890625 
Q 37.9375 66.21875 33.296875 66.21875 
Q 25.25 66.21875 20.875 63.09375 
Q 16.5 59.96875 16.5 54.203125 
Q 16.5 49.359375 19.40625 46.890625 
Q 22.3125 44.4375 30.421875 42.921875 
L 36.375 41.703125 
Q 47.40625 39.59375 52.65625 34.296875 
Q 57.90625 29 57.90625 20.125 
Q 57.90625 9.515625 50.796875 4.046875 
Q 43.703125 -1.421875 29.984375 -1.421875 
Q 24.8125 -1.421875 18.96875 -0.25 
Q 13.140625 0.921875 6.890625 3.21875 
L 6.890625 13.375 
Q 12.890625 10.015625 18.65625 8.296875 
Q 24.421875 6.59375 29.984375 6.59375 
Q 38.421875 6.59375 43.015625 9.90625 
Q 47.609375 13.234375 47.609375 19.390625 
Q 47.609375 24.75 44.3125 27.78125 
Q 41.015625 30.8125 33.5 32.328125 
L 27.484375 33.5 
Q 16.453125 35.6875 11.515625 40.375 
Q 6.59375 45.0625 6.59375 53.421875 
Q 6.59375 63.09375 13.40625 68.65625 
Q 20.21875 74.21875 32.171875 74.21875 
Q 37.3125 74.21875 42.625 73.28125 
Q 47.953125 72.359375 53.515625 70.515625 
z
" id="DejaVuSans-53"/>
      <path d="M 30.421875 75.984375 
L 30.421875 -13.1875 
L 9.71875 -13.1875 
L 9.71875 -6.203125 
L 21.390625 -6.203125 
L 21.390625 69 
L 9.71875 69 
L 9.71875 75.984375 
z
" id="DejaVuSans-5d"/>
     </defs>
     <g transform="translate(231.264062 415.120312)scale(0.1 -0.1)">
      <use xlink:href="#DejaVuSans-47"/>
      <use x="77.490234" xlink:href="#DejaVuSans-44"/>
      <use x="154.492188" xlink:href="#DejaVuSans-50"/>
      <use x="214.794922" xlink:href="#DejaVuSans-20"/>
      <use x="246.582031" xlink:href="#DejaVuSans-70"/>
      <use x="310.058594" xlink:href="#DejaVuSans-65"/>
      <use x="371.582031" xlink:href="#DejaVuSans-72"/>
      <use x="412.695312" xlink:href="#DejaVuSans-20"/>
      <use x="444.482422" xlink:href="#DejaVuSans-43"/>
      <use x="514.306641" xlink:href="#DejaVuSans-61"/>
      <use x="575.585938" xlink:href="#DejaVuSans-70"/>
      <use x="639.0625" xlink:href="#DejaVuSans-69"/>
      <use x="666.845703" xlink:href="#DejaVuSans-74"/>
      <use x="706.054688" xlink:href="#DejaVuSans-61"/>
      <use x="767.333984" xlink:href="#DejaVuSans-20"/>
      <use x="799.121094" xlink:href="#DejaVuSans-5b"/>
      <use x="838.134766" xlink:href="#DejaVuSans-69"/>
      <use x="865.917969" xlink:href="#DejaVuSans-6e"/>
      <use x="929.296875" xlink:href="#DejaVuSans-20"/>
      <use x="961.083984" xlink:href="#DejaVuSans-55"/>
      <use x="1034.277344" xlink:href="#DejaVuSans-53"/>
      <use x="1097.753906" xlink:href="#DejaVuSans-44"/>
      <use x="1174.755859" xlink:href="#DejaVuSans-5d"/>
     </g>
    </g>
   </g>
   <g id="matplotlib.axis_2">
    <g id="ytick_1">
     <g id="line2d_23">
      <defs>
       <path d="M 0 0 
L -3.5 0 
" id="m7190bde074" style="stroke:#000000;stroke-width:0.8;"/>
      </defs>
      <g>
       <use style="stroke:#000000;stroke-width:0.8;" x="44.203125" xlink:href="#m7190bde074" y="367.423513"/>
      </g>
     </g>
     <g id="text_4">
      <!-- 40 -->
      <g transform="translate(24.478125 371.222731)scale(0.1 -0.1)">
       <use xlink:href="#DejaVuSans-34"/>
       <use x="63.623047" xlink:href="#DejaVuSans-30"/>
      </g>
     </g>
    </g>
    <g id="ytick_2">
     <g id="line2d_24">
      <g>
       <use style="stroke:#000000;stroke-width:0.8;" x="44.203125" xlink:href="#m7190bde074" y="291.128944"/>
      </g>
     </g>
     <g id="text_5">
      <!-- 50 -->
      <defs>
       <path d="M 10.796875 72.90625 
L 49.515625 72.90625 
L 49.515625 64.59375 
L 19.828125 64.59375 
L 19.828125 46.734375 
Q 21.96875 47.46875 24.109375 47.828125 
Q 26.265625 48.1875 28.421875 48.1875 
Q 40.625 48.1875 47.75 41.5 
Q 54.890625 34.8125 54.890625 23.390625 
Q 54.890625 11.625 47.5625 5.09375 
Q 40.234375 -1.421875 26.90625 -1.421875 
Q 22.3125 -1.421875 17.546875 -0.640625 
Q 12.796875 0.140625 7.71875 1.703125 
L 7.71875 11.625 
Q 12.109375 9.234375 16.796875 8.0625 
Q 21.484375 6.890625 26.703125 6.890625 
Q 35.15625 6.890625 40.078125 11.328125 
Q 45.015625 15.765625 45.015625 23.390625 
Q 45.015625 31 40.078125 35.4375 
Q 35.15625 39.890625 26.703125 39.890625 
Q 22.75 39.890625 18.8125 39.015625 
Q 14.890625 38.140625 10.796875 36.28125 
z
" id="DejaVuSans-35"/>
      </defs>
      <g transform="translate(24.478125 294.928163)scale(0.1 -0.1)">
       <use xlink:href="#DejaVuSans-35"/>
       <use x="63.623047" xlink:href="#DejaVuSans-30"/>
      </g>
     </g>
    </g>
    <g id="ytick_3">
     <g id="line2d_25">
      <g>
       <use style="stroke:#000000;stroke-width:0.8;" x="44.203125" xlink:href="#m7190bde074" y="214.834376"/>
      </g>
     </g>
     <g id="text_6">
      <!-- 60 -->
      <defs>
       <path d="M 33.015625 40.375 
Q 26.375 40.375 22.484375 35.828125 
Q 18.609375 31.296875 18.609375 23.390625 
Q 18.609375 15.53125 22.484375 10.953125 
Q 26.375 6.390625 33.015625 6.390625 
Q 39.65625 6.390625 43.53125 10.953125 
Q 47.40625 15.53125 47.40625 23.390625 
Q 47.40625 31.296875 43.53125 35.828125 
Q 39.65625 40.375 33.015625 40.375 
z
M 52.59375 71.296875 
L 52.59375 62.3125 
Q 48.875 64.0625 45.09375 64.984375 
Q 41.3125 65.921875 37.59375 65.921875 
Q 27.828125 65.921875 22.671875 59.328125 
Q 17.53125 52.734375 16.796875 39.40625 
Q 19.671875 43.65625 24.015625 45.921875 
Q 28.375 48.1875 33.59375 48.1875 
Q 44.578125 48.1875 50.953125 41.515625 
Q 57.328125 34.859375 57.328125 23.390625 
Q 57.328125 12.15625 50.6875 5.359375 
Q 44.046875 -1.421875 33.015625 -1.421875 
Q 20.359375 -1.421875 13.671875 8.265625 
Q 6.984375 17.96875 6.984375 36.375 
Q 6.984375 53.65625 15.1875 63.9375 
Q 23.390625 74.21875 37.203125 74.21875 
Q 40.921875 74.21875 44.703125 73.484375 
Q 48.484375 72.75 52.59375 71.296875 
z
" id="DejaVuSans-36"/>
      </defs>
      <g transform="translate(24.478125 218.633594)scale(0.1 -0.1)">
       <use xlink:href="#DejaVuSans-36"/>
       <use x="63.623047" xlink:href="#DejaVuSans-30"/>
      </g>
     </g>
    </g>
    <g id="ytick_4">
     <g id="line2d_26">
      <g>
       <use style="stroke:#000000;stroke-width:0.8;" x="44.203125" xlink:href="#m7190bde074" y="138.539807"/>
      </g>
     </g>
     <g id="text_7">
      <!-- 70 -->
      <defs>
       <path d="M 8.203125 72.90625 
L 55.078125 72.90625 
L 55.078125 68.703125 
L 28.609375 0 
L 18.3125 0 
L 43.21875 64.59375 
L 8.203125 64.59375 
z
" id="DejaVuSans-37"/>
      </defs>
      <g transform="translate(24.478125 142.339026)scale(0.1 -0.1)">
       <use xlink:href="#DejaVuSans-37"/>
       <use x="63.623047" xlink:href="#DejaVuSans-30"/>
      </g>
     </g>
    </g>
    <g id="ytick_5">
     <g id="line2d_27">
      <g>
       <use style="stroke:#000000;stroke-width:0.8;" x="44.203125" xlink:href="#m7190bde074" y="62.245239"/>
      </g>
     </g>
     <g id="text_8">
      <!-- 80 -->
      <defs>
       <path d="M 31.78125 34.625 
Q 24.75 34.625 20.71875 30.859375 
Q 16.703125 27.09375 16.703125 20.515625 
Q 16.703125 13.921875 20.71875 10.15625 
Q 24.75 6.390625 31.78125 6.390625 
Q 38.8125 6.390625 42.859375 10.171875 
Q 46.921875 13.96875 46.921875 20.515625 
Q 46.921875 27.09375 42.890625 30.859375 
Q 38.875 34.625 31.78125 34.625 
z
M 21.921875 38.8125 
Q 15.578125 40.375 12.03125 44.71875 
Q 8.5 49.078125 8.5 55.328125 
Q 8.5 64.0625 14.71875 69.140625 
Q 20.953125 74.21875 31.78125 74.21875 
Q 42.671875 74.21875 48.875 69.140625 
Q 55.078125 64.0625 55.078125 55.328125 
Q 55.078125 49.078125 51.53125 44.71875 
Q 48 40.375 41.703125 38.8125 
Q 48.828125 37.15625 52.796875 32.3125 
Q 56.78125 27.484375 56.78125 20.515625 
Q 56.78125 9.90625 50.3125 4.234375 
Q 43.84375 -1.421875 31.78125 -1.421875 
Q 19.734375 -1.421875 13.25 4.234375 
Q 6.78125 9.90625 6.78125 20.515625 
Q 6.78125 27.484375 10.78125 32.3125 
Q 14.796875 37.15625 21.921875 38.8125 
z
M 18.3125 54.390625 
Q 18.3125 48.734375 21.84375 45.5625 
Q 25.390625 42.390625 31.78125 42.390625 
Q 38.140625 42.390625 41.71875 45.5625 
Q 45.3125 48.734375 45.3125 54.390625 
Q 45.3125 60.0625 41.71875 63.234375 
Q 38.140625 66.40625 31.78125 66.40625 
Q 25.390625 66.40625 21.84375 63.234375 
Q 18.3125 60.0625 18.3125 54.390625 
z
" id="DejaVuSans-38"/>
      </defs>
      <g transform="translate(24.478125 66.044458)scale(0.1 -0.1)">
       <use xlink:href="#DejaVuSans-38"/>
       <use x="63.623047" xlink:href="#DejaVuSans-30"/>
      </g>
     </g>
    </g>
    <g id="text_9">
     <!-- Life Expectancy [in years] -->
     <defs>
      <path d="M 9.8125 72.90625 
L 19.671875 72.90625 
L 19.671875 8.296875 
L 55.171875 8.296875 
L 55.171875 0 
L 9.8125 0 
z
" id="DejaVuSans-4c"/>
      <path d="M 37.109375 75.984375 
L 37.109375 68.5 
L 28.515625 68.5 
Q 23.6875 68.5 21.796875 66.546875 
Q 19.921875 64.59375 19.921875 59.515625 
L 19.921875 54.6875 
L 34.71875 54.6875 
L 34.71875 47.703125 
L 19.921875 47.703125 
L 19.921875 0 
L 10.890625 0 
L 10.890625 47.703125 
L 2.296875 47.703125 
L 2.296875 54.6875 
L 10.890625 54.6875 
L 10.890625 58.5 
Q 10.890625 67.625 15.140625 71.796875 
Q 19.390625 75.984375 28.609375 75.984375 
z
" id="DejaVuSans-66"/>
      <path d="M 9.8125 72.90625 
L 55.90625 72.90625 
L 55.90625 64.59375 
L 19.671875 64.59375 
L 19.671875 43.015625 
L 54.390625 43.015625 
L 54.390625 34.71875 
L 19.671875 34.71875 
L 19.671875 8.296875 
L 56.78125 8.296875 
L 56.78125 0 
L 9.8125 0 
z
" id="DejaVuSans-45"/>
      <path d="M 54.890625 54.6875 
L 35.109375 28.078125 
L 55.90625 0 
L 45.3125 0 
L 29.390625 21.484375 
L 13.484375 0 
L 2.875 0 
L 24.125 28.609375 
L 4.6875 54.6875 
L 15.28125 54.6875 
L 29.78125 35.203125 
L 44.28125 54.6875 
z
" id="DejaVuSans-78"/>
      <path d="M 48.78125 52.59375 
L 48.78125 44.1875 
Q 44.96875 46.296875 41.140625 47.34375 
Q 37.3125 48.390625 33.40625 48.390625 
Q 24.65625 48.390625 19.8125 42.84375 
Q 14.984375 37.3125 14.984375 27.296875 
Q 14.984375 17.28125 19.8125 11.734375 
Q 24.65625 6.203125 33.40625 6.203125 
Q 37.3125 6.203125 41.140625 7.25 
Q 44.96875 8.296875 48.78125 10.40625 
L 48.78125 2.09375 
Q 45.015625 0.34375 40.984375 -0.53125 
Q 36.96875 -1.421875 32.421875 -1.421875 
Q 20.0625 -1.421875 12.78125 6.34375 
Q 5.515625 14.109375 5.515625 27.296875 
Q 5.515625 40.671875 12.859375 48.328125 
Q 20.21875 56 33.015625 56 
Q 37.15625 56 41.109375 55.140625 
Q 45.0625 54.296875 48.78125 52.59375 
z
" id="DejaVuSans-63"/>
      <path d="M 32.171875 -5.078125 
Q 28.375 -14.84375 24.75 -17.8125 
Q 21.140625 -20.796875 15.09375 -20.796875 
L 7.90625 -20.796875 
L 7.90625 -13.28125 
L 13.1875 -13.28125 
Q 16.890625 -13.28125 18.9375 -11.515625 
Q 21 -9.765625 23.484375 -3.21875 
L 25.09375 0.875 
L 2.984375 54.6875 
L 12.5 54.6875 
L 29.59375 11.921875 
L 46.6875 54.6875 
L 56.203125 54.6875 
z
" id="DejaVuSans-79"/>
      <path d="M 44.28125 53.078125 
L 44.28125 44.578125 
Q 40.484375 46.53125 36.375 47.5 
Q 32.28125 48.484375 27.875 48.484375 
Q 21.1875 48.484375 17.84375 46.4375 
Q 14.5 44.390625 14.5 40.28125 
Q 14.5 37.15625 16.890625 35.375 
Q 19.28125 33.59375 26.515625 31.984375 
L 29.59375 31.296875 
Q 39.15625 29.25 43.1875 25.515625 
Q 47.21875 21.78125 47.21875 15.09375 
Q 47.21875 7.46875 41.1875 3.015625 
Q 35.15625 -1.421875 24.609375 -1.421875 
Q 20.21875 -1.421875 15.453125 -0.5625 
Q 10.6875 0.296875 5.421875 2 
L 5.421875 11.28125 
Q 10.40625 8.6875 15.234375 7.390625 
Q 20.0625 6.109375 24.8125 6.109375 
Q 31.15625 6.109375 34.5625 8.28125 
Q 37.984375 10.453125 37.984375 14.40625 
Q 37.984375 18.0625 35.515625 20.015625 
Q 33.0625 21.96875 24.703125 23.78125 
L 21.578125 24.515625 
Q 13.234375 26.265625 9.515625 29.90625 
Q 5.8125 33.546875 5.8125 39.890625 
Q 5.8125 47.609375 11.28125 51.796875 
Q 16.75 56 26.8125 56 
Q 31.78125 56 36.171875 55.265625 
Q 40.578125 54.546875 44.28125 53.078125 
z
" id="DejaVuSans-73"/>
     </defs>
     <g transform="translate(18.398437 271.399687)rotate(-90)scale(0.1 -0.1)">
      <use xlink:href="#DejaVuSans-4c"/>
      <use x="55.712891" xlink:href="#DejaVuSans-69"/>
      <use x="83.496094" xlink:href="#DejaVuSans-66"/>
      <use x="118.701172" xlink:href="#DejaVuSans-65"/>
      <use x="180.224609" xlink:href="#DejaVuSans-20"/>
      <use x="212.011719" xlink:href="#DejaVuSans-45"/>
      <use x="275.195312" xlink:href="#DejaVuSans-78"/>
      <use x="334.375" xlink:href="#DejaVuSans-70"/>
      <use x="397.851562" xlink:href="#DejaVuSans-65"/>
      <use x="459.375" xlink:href="#DejaVuSans-63"/>
      <use x="514.355469" xlink:href="#DejaVuSans-74"/>
      <use x="553.564453" xlink:href="#DejaVuSans-61"/>
      <use x="614.84375" xlink:href="#DejaVuSans-6e"/>
      <use x="678.222656" xlink:href="#DejaVuSans-63"/>
      <use x="733.203125" xlink:href="#DejaVuSans-79"/>
      <use x="792.382812" xlink:href="#DejaVuSans-20"/>
      <use x="824.169922" xlink:href="#DejaVuSans-5b"/>
      <use x="863.183594" xlink:href="#DejaVuSans-69"/>
      <use x="890.966797" xlink:href="#DejaVuSans-6e"/>
      <use x="954.345703" xlink:href="#DejaVuSans-20"/>
      <use x="986.132812" xlink:href="#DejaVuSans-79"/>
      <use x="1045.3125" xlink:href="#DejaVuSans-65"/>
      <use x="1106.835938" xlink:href="#DejaVuSans-61"/>
      <use x="1168.115234" xlink:href="#DejaVuSans-72"/>
      <use x="1209.228516" xlink:href="#DejaVuSans-73"/>
      <use x="1261.328125" xlink:href="#DejaVuSans-5d"/>
     </g>
    </g>
   </g>
   <g id="patch_3">
    <path d="M 44.203125 386.84375 
L 44.203125 25.918125 
" style="fill:none;stroke:#000000;stroke-linecap:square;stroke-linejoin:miter;stroke-width:0.8;"/>
   </g>
   <g id="patch_4">
    <path d="M 539.7 386.84375 
L 539.7 25.918125 
" style="fill:none;stroke:#000000;stroke-linecap:square;stroke-linejoin:miter;stroke-width:0.8;"/>
   </g>
   <g id="patch_5">
    <path d="M 44.203125 386.84375 
L 539.7 386.84375 
" style="fill:none;stroke:#000000;stroke-linecap:square;stroke-linejoin:miter;stroke-width:0.8;"/>
   </g>
   <g id="patch_6">
    <path d="M 44.203125 25.918125 
L 539.7 25.918125 
" style="fill:none;stroke:#000000;stroke-linecap:square;stroke-linejoin:miter;stroke-width:0.8;"/>
   </g>
   <g id="text_10">
    <!-- World Development in 2007 -->
    <defs>
     <path d="M 3.328125 72.90625 
L 13.28125 72.90625 
L 28.609375 11.28125 
L 43.890625 72.90625 
L 54.984375 72.90625 
L 70.3125 11.28125 
L 85.59375 72.90625 
L 95.609375 72.90625 
L 77.296875 0 
L 64.890625 0 
L 49.515625 63.28125 
L 33.984375 0 
L 21.578125 0 
z
" id="DejaVuSans-57"/>
     <path d="M 30.609375 48.390625 
Q 23.390625 48.390625 19.1875 42.75 
Q 14.984375 37.109375 14.984375 27.296875 
Q 14.984375 17.484375 19.15625 11.84375 
Q 23.34375 6.203125 30.609375 6.203125 
Q 37.796875 6.203125 41.984375 11.859375 
Q 46.1875 17.53125 46.1875 27.296875 
Q 46.1875 37.015625 41.984375 42.703125 
Q 37.796875 48.390625 30.609375 48.390625 
z
M 30.609375 56 
Q 42.328125 56 49.015625 48.375 
Q 55.71875 40.765625 55.71875 27.296875 
Q 55.71875 13.875 49.015625 6.21875 
Q 42.328125 -1.421875 30.609375 -1.421875 
Q 18.84375 -1.421875 12.171875 6.21875 
Q 5.515625 13.875 5.515625 27.296875 
Q 5.515625 40.765625 12.171875 48.375 
Q 18.84375 56 30.609375 56 
z
" id="DejaVuSans-6f"/>
     <path d="M 9.421875 75.984375 
L 18.40625 75.984375 
L 18.40625 0 
L 9.421875 0 
z
" id="DejaVuSans-6c"/>
     <path d="M 45.40625 46.390625 
L 45.40625 75.984375 
L 54.390625 75.984375 
L 54.390625 0 
L 45.40625 0 
L 45.40625 8.203125 
Q 42.578125 3.328125 38.25 0.953125 
Q 33.9375 -1.421875 27.875 -1.421875 
Q 17.96875 -1.421875 11.734375 6.484375 
Q 5.515625 14.40625 5.515625 27.296875 
Q 5.515625 40.1875 11.734375 48.09375 
Q 17.96875 56 27.875 56 
Q 33.9375 56 38.25 53.625 
Q 42.578125 51.265625 45.40625 46.390625 
z
M 14.796875 27.296875 
Q 14.796875 17.390625 18.875 11.75 
Q 22.953125 6.109375 30.078125 6.109375 
Q 37.203125 6.109375 41.296875 11.75 
Q 45.40625 17.390625 45.40625 27.296875 
Q 45.40625 37.203125 41.296875 42.84375 
Q 37.203125 48.484375 30.078125 48.484375 
Q 22.953125 48.484375 18.875 42.84375 
Q 14.796875 37.203125 14.796875 27.296875 
z
" id="DejaVuSans-64"/>
     <path d="M 2.984375 54.6875 
L 12.5 54.6875 
L 29.59375 8.796875 
L 46.6875 54.6875 
L 56.203125 54.6875 
L 35.6875 0 
L 23.484375 0 
z
" id="DejaVuSans-76"/>
     <path d="M 52 44.1875 
Q 55.375 50.25 60.0625 53.125 
Q 64.75 56 71.09375 56 
Q 79.640625 56 84.28125 50.015625 
Q 88.921875 44.046875 88.921875 33.015625 
L 88.921875 0 
L 79.890625 0 
L 79.890625 32.71875 
Q 79.890625 40.578125 77.09375 44.375 
Q 74.3125 48.1875 68.609375 48.1875 
Q 61.625 48.1875 57.5625 43.546875 
Q 53.515625 38.921875 53.515625 30.90625 
L 53.515625 0 
L 44.484375 0 
L 44.484375 32.71875 
Q 44.484375 40.625 41.703125 44.40625 
Q 38.921875 48.1875 33.109375 48.1875 
Q 26.21875 48.1875 22.15625 43.53125 
Q 18.109375 38.875 18.109375 30.90625 
L 18.109375 0 
L 9.078125 0 
L 9.078125 54.6875 
L 18.109375 54.6875 
L 18.109375 46.1875 
Q 21.1875 51.21875 25.484375 53.609375 
Q 29.78125 56 35.6875 56 
Q 41.65625 56 45.828125 52.96875 
Q 50 49.953125 52 44.1875 
z
" id="DejaVuSans-6d"/>
     <path d="M 19.1875 8.296875 
L 53.609375 8.296875 
L 53.609375 0 
L 7.328125 0 
L 7.328125 8.296875 
Q 12.9375 14.109375 22.625 23.890625 
Q 32.328125 33.6875 34.8125 36.53125 
Q 39.546875 41.84375 41.421875 45.53125 
Q 43.3125 49.21875 43.3125 52.78125 
Q 43.3125 58.59375 39.234375 62.25 
Q 35.15625 65.921875 28.609375 65.921875 
Q 23.96875 65.921875 18.8125 64.3125 
Q 13.671875 62.703125 7.8125 59.421875 
L 7.8125 69.390625 
Q 13.765625 71.78125 18.9375 73 
Q 24.125 74.21875 28.421875 74.21875 
Q 39.75 74.21875 46.484375 68.546875 
Q 53.21875 62.890625 53.21875 53.421875 
Q 53.21875 48.921875 51.53125 44.890625 
Q 49.859375 40.875 45.40625 35.40625 
Q 44.1875 33.984375 37.640625 27.21875 
Q 31.109375 20.453125 19.1875 8.296875 
z
" id="DejaVuSans-32"/>
    </defs>
    <g transform="translate(207.556875 19.918125)scale(0.12 -0.12)">
     <use xlink:href="#DejaVuSans-57"/>
     <use x="98.798828" xlink:href="#DejaVuSans-6f"/>
     <use x="159.980469" xlink:href="#DejaVuSans-72"/>
     <use x="201.09375" xlink:href="#DejaVuSans-6c"/>
     <use x="228.876953" xlink:href="#DejaVuSans-64"/>
     <use x="292.353516" xlink:href="#DejaVuSans-20"/>
     <use x="324.140625" xlink:href="#DejaVuSans-44"/>
     <use x="401.142578" xlink:href="#DejaVuSans-65"/>
     <use x="462.666016" xlink:href="#DejaVuSans-76"/>
     <use x="521.845703" xlink:href="#DejaVuSans-65"/>
     <use x="583.369141" xlink:href="#DejaVuSans-6c"/>
     <use x="611.152344" xlink:href="#DejaVuSans-6f"/>
     <use x="672.333984" xlink:href="#DejaVuSans-70"/>
     <use x="735.810547" xlink:href="#DejaVuSans-6d"/>
     <use x="833.222656" xlink:href="#DejaVuSans-65"/>
     <use x="894.746094" xlink:href="#DejaVuSans-6e"/>
     <use x="958.125" xlink:href="#DejaVuSans-74"/>
     <use x="997.333984" xlink:href="#DejaVuSans-20"/>
     <use x="1029.121094" xlink:href="#DejaVuSans-69"/>
     <use x="1056.904297" xlink:href="#DejaVuSans-6e"/>
     <use x="1120.283203" xlink:href="#DejaVuSans-20"/>
     <use x="1152.070312" xlink:href="#DejaVuSans-32"/>
     <use x="1215.693359" xlink:href="#DejaVuSans-30"/>
     <use x="1279.316406" xlink:href="#DejaVuSans-30"/>
     <use x="1342.939453" xlink:href="#DejaVuSans-37"/>
    </g>
   </g>
  </g>
 </g>
 <defs>
  <clipPath id="p29ad945a22">
   <rect height="360.925625" width="495.496875" x="44.203125" y="25.918125"/>
  </clipPath>
 </defs>
</svg>
